<svg xmlns="http://www.w3.org/2000/svg" width="561" height="446" viewBox="0 0 561 446">
  <g fill="none" transform="translate(.311)">
    <path fill="#2E72B9" d="M31.7412313,420.906407 C39.2933263,420.906407 45.779903,419.392249 51.2009614,416.363934 C56.6220197,413.335619 60.7906266,408.886612 63.7067822,403.016914 C66.6229377,397.147217 68.0810154,390.137228 68.0810154,381.986947 C68.0810154,369.574593 64.7909938,360.003621 58.2109506,353.274031 C51.6309074,346.544441 42.3590283,343.179646 30.3953133,343.179646 L30.3953133,343.179646 L0,343.179646 L0,420.906407 L31.7412313,420.906407 Z M29.0493954,404.306753 L21.6468468,404.306753 L21.6468468,359.779301 L29.273715,359.779301 C40.4149246,359.779301 45.9855294,366.84537 45.9855294,380.977508 L45.9855294,380.977508 L45.9855294,382.996385 C45.9855294,397.203297 40.3401514,404.306753 29.0493954,404.306753 L29.0493954,404.306753 Z M86.8257267,445.357249 C92.2841716,445.357249 96.7705647,443.880478 100.284906,440.926936 C103.799247,437.973394 106.715403,433.243988 109.033373,426.738718 L109.033373,426.738718 L131.913977,363.144096 L110.154971,363.144096 L101.070025,401.502757 L91.1999599,363.144096 L68.8801542,363.144096 L91.8729189,422.700964 C90.7513206,425.3928 89.3119362,427.318211 87.5547655,428.477195 C85.7975949,429.63618 83.4235452,430.215673 80.4326165,430.215673 C77.7407806,430.215673 75.5349707,430.103513 73.8151866,429.879193 L73.8151866,429.879193 L73.8151866,443.338373 C77.8529404,444.68429 82.1897871,445.357249 86.8257267,445.357249 Z M154.920762,420.906407 L154.920762,379.295111 C157.986464,377.42578 160.90262,376.491115 163.669229,376.491115 C165.688106,376.491115 167.12749,377.014528 167.987382,378.061353 C168.847274,379.108178 169.27722,380.753189 169.27722,382.996385 L169.27722,382.996385 L169.27722,420.906407 L190.363268,420.906407 L190.363268,378.285672 C190.363268,372.902001 188.942577,368.752087 186.101194,365.835932 C183.259812,362.919776 179.147285,361.461698 173.763613,361.461698 C170.024952,361.461698 166.473224,362.059884 163.10843,363.256256 C159.743635,364.452627 156.304067,366.359344 152.789725,368.976407 L152.789725,368.976407 L150.995168,363.144096 L133.834714,363.144096 L133.834714,420.906407 L154.920762,420.906407 Z M214.155171,422.925284 C217.1461,422.925284 220.062255,422.364485 222.903638,421.242886 C225.74502,420.121288 228.287309,418.513664 230.530506,416.420014 L230.530506,416.420014 L232.100744,420.906407 L248.588238,420.906407 L248.588238,382.211266 C248.588238,375.033037 246.662828,369.780219 242.812007,366.452811 C238.961186,363.125402 232.923249,361.461698 224.698195,361.461698 C220.137029,361.461698 215.688022,361.910338 211.351175,362.807616 C207.014329,363.704895 203.313054,364.938653 200.247352,366.508891 L200.247352,366.508891 L200.247352,379.519431 C207.799448,377.201461 214.192558,376.042476 219.426683,376.042476 C223.015798,376.042476 225.5207,376.640662 226.941391,377.837033 C228.362083,379.033405 229.072428,381.201828 229.072428,384.342303 L229.072428,384.342303 L229.072428,387.258459 C225.707633,386.5855 222.342839,386.24902 218.978044,386.24902 C214.491651,386.24902 210.491283,387.015446 206.976942,388.548297 C203.462601,390.081148 200.695992,392.286958 198.677115,395.165727 C196.658238,398.044495 195.6488,401.390597 195.6488,405.204031 C195.6488,410.587703 197.34989,414.887163 200.752072,418.102411 C204.154253,421.31766 208.621953,422.925284 214.155171,422.925284 Z M220.996921,409.578264 C219.277137,409.578264 217.912525,409.054852 216.903087,408.008027 C215.893648,406.961202 215.388929,405.540511 215.388929,403.745953 C215.388929,399.558653 217.893832,397.465003 222.903638,397.465003 C224.922515,397.465003 226.978778,397.614549 229.072428,397.913642 L229.072428,397.913642 L229.072428,406.21347 C228.100376,407.185521 226.866618,407.989334 225.371154,408.624906 C223.87569,409.260478 222.417612,409.578264 220.996921,409.578264 Z M278.548932,420.906407 L278.548932,378.958631 C281.614634,377.313621 284.568176,376.491115 287.409559,376.491115 C290.849127,376.491115 292.568911,378.360446 292.568911,382.099107 L292.568911,382.099107 L292.568911,420.906407 L313.654958,420.906407 L313.654958,378.958631 C316.72066,377.313621 319.674202,376.491115 322.515585,376.491115 C325.955153,376.491115 327.674937,378.360446 327.674937,382.099107 L327.674937,382.099107 L327.674937,420.906407 L348.760984,420.906407 L348.760984,377.837033 C348.760984,372.677681 347.284213,368.658621 344.330671,365.779852 C341.377129,362.901083 337.283295,361.461698 332.04917,361.461698 C328.310509,361.461698 324.833554,362.003804 321.618306,363.088016 C318.403058,364.172227 314.926103,365.948091 311.187442,368.415608 C309.766751,366.172411 307.860034,364.452627 305.467291,363.256256 C303.074548,362.059884 300.233166,361.461698 296.943144,361.461698 C293.279256,361.461698 289.839688,362.022497 286.62444,363.144096 C283.409191,364.265694 280.00701,366.135024 276.417896,368.752087 L276.417896,368.752087 L274.623338,363.144096 L257.462885,363.144096 L257.462885,420.906407 L278.548932,420.906407 Z M384.666149,422.588804 C394.012802,422.588804 401.340577,419.896969 406.649476,414.513297 C411.958374,409.129625 414.612823,401.614917 414.612823,391.969171 C414.612823,382.398199 411.958374,374.920878 406.649476,369.537206 C401.340577,364.153534 394.012802,361.461698 384.666149,361.461698 C375.319497,361.461698 367.991722,364.153534 362.682823,369.537206 C357.373925,374.920878 354.719475,382.398199 354.719475,391.969171 C354.719475,401.614917 357.373925,409.129625 362.682823,414.513297 C367.991722,419.896969 375.319497,422.588804 384.666149,422.588804 Z M384.666149,407.783707 C378.908611,407.783707 376.029843,402.512195 376.029843,391.969171 C376.029843,381.500921 378.908611,376.266796 384.666149,376.266796 C390.423687,376.266796 393.302456,381.500921 393.302456,391.969171 C393.302456,402.512195 390.423687,407.783707 384.666149,407.783707 Z M453.658463,420.906407 C461.210558,420.906407 467.697135,419.392249 473.118193,416.363934 C478.539252,413.335619 482.707859,408.886612 485.624014,403.016914 C488.54017,397.147217 489.998248,390.137228 489.998248,381.986947 C489.998248,369.574593 486.708226,360.003621 480.128183,353.274031 C473.548139,346.544441 464.27626,343.179646 452.312545,343.179646 L452.312545,343.179646 L421.917232,343.179646 L421.917232,420.906407 L453.658463,420.906407 Z M450.966627,404.306753 L443.564079,404.306753 L443.564079,359.779301 L451.190947,359.779301 C462.332157,359.779301 467.902761,366.84537 467.902761,380.977508 L467.902761,380.977508 L467.902761,382.996385 C467.902761,397.203297 462.257383,404.306753 450.966627,404.306753 L450.966627,404.306753 Z M530.950605,420.906407 C536.708142,420.906407 541.774028,420.027822 546.148261,418.270651 C550.522495,416.51348 553.924676,413.952498 556.354806,410.587703 C558.784935,407.222908 560,403.259927 560,398.698761 C560,394.137595 558.822322,390.230694 556.466965,386.978059 C554.111609,383.725424 550.653348,381.276601 546.092181,379.63159 C549.382203,378.061353 551.887106,375.930316 553.60689,373.23848 C555.326674,370.546644 556.186566,367.443556 556.186566,363.929215 C556.186566,357.648264 553.793823,352.619765 549.008337,348.843718 C544.222851,345.06767 537.829741,343.179646 529.829006,343.179646 L529.829006,343.179646 L499.097214,343.179646 L499.097214,420.906407 L530.950605,420.906407 Z M526.912851,374.360078 L519.285983,374.360078 L519.285983,357.984744 L527.58581,357.984744 C530.128099,357.984744 532.05351,358.695089 533.362041,360.11578 C534.670572,361.536472 535.324838,363.630122 535.324838,366.396731 C535.324838,371.705629 532.520842,374.360078 526.912851,374.360078 L526.912851,374.360078 Z M529.716847,406.10131 L519.285983,406.10131 L519.285983,388.380057 L528.707408,388.380057 C535.511771,388.380057 538.913952,391.408372 538.913952,397.465003 C538.913952,400.455932 538.16622,402.643048 536.670756,404.026353 C535.175291,405.409657 532.857322,406.10131 529.716847,406.10131 L529.716847,406.10131 Z"/>
    <g transform="translate(143.549)">
      <polyline fill="#5294CF" points="176.464 308.44 180.247 308.44 241.985 277.827 243.013 276.387 243.013 32.035 241.985 30.587 180.247 0 176.418 0 176.464 308.44"/>
      <polyline fill="#1F5B98" points="96.925 308.44 93.138 308.44 32.239 277.827 31.004 275.692 30.377 33.279 32.239 30.587 93.138 0 96.972 0 96.925 308.44"/>
      <polygon fill="#2D72B8" points="93.467 0 181.091 0 181.091 308.44 93.467 308.44"/>
      <polyline fill="#1A476F" points="273.39 147.291 271.323 146.831 241.818 144.072 241.381 144.291 180.175 141.836 93.214 141.836 32.008 144.291 32.008 97.482 31.944 97.516 32.008 97.379 93.214 83.155 180.175 83.155 241.381 97.379 263.881 109.374 263.881 101.662 273.39 100.619 272.405 98.693 242.298 77.102 241.381 77.401 180.175 58.38 93.214 58.38 32.008 77.401 32.008 30.377 0 67.984 0 100.829 .248 100.649 9.509 101.662 9.509 109.532 0 114.636 0 147.316 .248 147.291 9.509 147.428 9.509 161.145 1.519 161.265 0 161.119 0 193.812 9.509 198.941 9.509 206.902 .398 207.911 0 207.611 0 240.45 32.008 278.063 32.008 231.043 93.214 250.064 180.175 250.064 241.561 230.987 242.377 231.346 272.088 210.073 273.39 207.953 263.881 206.902 263.881 199.1 262.634 198.601 242.298 209.595 241.561 211.138 180.175 225.279 180.175 225.296 93.214 225.296 93.214 225.279 32.008 211.078 32.008 164.097 93.214 166.544 93.214 166.604 180.175 166.604 241.381 164.097 242.774 164.74 271.372 162.27 273.39 161.282 263.881 161.145 263.881 147.428 273.39 147.291"/>
      <path fill="#2D72B8" d="M241.844629,231.043029 L241.844629,278.062906 L273.38958,240.450004 L273.38958,207.82495 L242.026702,230.987335 L241.844629,231.043029 M241.844629,211.180529 L242.026702,211.137688 L273.38958,193.971004 L273.38958,161.144594 L241.844629,164.097461 L241.844629,211.180529 M242.026702,97.4217955 L241.844629,97.3789538 L241.844629,144.290655 L273.38958,147.290648 L273.38958,114.480304 L242.026702,97.4217955 M242.026702,77.5850005 L273.38958,100.61886 L273.38958,67.9927357 L241.844629,30.37662 L241.844629,77.400781 L242.026702,77.4650436 L242.026702,77.5850005"/>
    </g>
  </g>
</svg>
